# xmcd CD database file
#
# Track frame offsets:
#	150
#	22093
#	60359
#	76387
#	90087
#	108460
#	125703
#	141654
#	153433
#	165844
#	184599
#	198173
#	214979
#	257943
#	280899
#
# Disc length: 3936 seconds
#
# Revision: 0
# Processed by: cddbd v1.5.1PL0 Copyright (c) Steve Scherf et al.
# Submitted via: CDex 1.51
#
DISCID=cf0f5e0f
DTITLE=Count Basie - Newport (1957)
DYEAR=1900
DGENRE=Jazz
TTITLE0=01 - Introduction by John Hammond
TTITLE1=02 - Swingin' at Newport
TTITLE2=03 - Polka Dots and Moonbeams
TTITLE3=04 - Lester leaps in
TTITLE4=05 - Sent for you Yesterday and Here you come Today (with J Rushing)
TTITLE5=06 - Boogie Woogie (I May Be Wrong) (with J Rushing)
TTITLE6=07 - Evenin' (with J Rushing)
TTITLE7=08 - Blee Blop Blues
TTITLE8=09 - Alright, okay, you win (with Joe Williams)
TTITLE9=10 - The comeback (with Joe Williams)
TTITLE10=11 - Roll 'em Pete (with Joe Williams)
TTITLE11=12 - Smack dab in the middle (with Joe Williams)
TTITLE12=13 - One o'clock Jump
TTITLE13=Count Basie and His Orchestra - Rock-A-Bye-Basie (mp3 from album Let's Jump)
TTITLE14=Ken Burns Jazz - Jumpin' At the Woodside (mp3)
EXTD=
EXTT0=
EXTT1=
EXTT2=
EXTT3=
EXTT4=
EXTT5=
EXTT6=
EXTT7=
EXTT8=
EXTT9=
EXTT10=
EXTT11=
EXTT12=
EXTT13=
EXTT14=
PLAYORDER=
